<svg xmlns="http://www.w3.org/2000/svg" version="1.1" xmlns:xlink="http://www.w3.org/1999/xlink" xmlns:svgjs="http://svgjs.dev/svgjs" width="1000" height="292" viewBox="0 0 1000 292"><g transform="matrix(1,0,0,1,-0.6060606060606233,-0.1511507717280267)"><svg viewBox="0 0 396 116" data-background-color="#b19dd0" preserveAspectRatio="xMidYMid meet" height="292" width="1000" xmlns="http://www.w3.org/2000/svg" xmlns:xlink="http://www.w3.org/1999/xlink"><g id="tight-bounds" transform="matrix(1,0,0,1,0.2400000000000091,0.06004655974024331)"><svg viewBox="0 0 395.52 115.87989942760674" height="115.87989942760674" width="395.52"><g><svg viewBox="0 0 670.9924157846706 196.58812110086598" height="115.87989942760674" width="395.52"><g transform="matrix(1,0,0,1,275.4724157846706,32.550283578884404)"><svg viewBox="0 0 395.52 131.48755394309717" height="131.48755394309717" width="395.52"><g><svg viewBox="0 0 395.52 131.48755394309717" height="131.48755394309717" width="395.52"><g><svg viewBox="0 0 395.52 131.48755394309717" height="131.48755394309717" width="395.52"><g transform="matrix(1,0,0,1,0,0)"><svg width="395.52" viewBox="1.340000033378601 -35.5 127.85000610351562 42.51000213623047" height="131.48755394309717" data-palette-color="#7a26c1"><path d="M27.44-1.1L32.86 7.01 24.9 7.01 20.7 0.71Q20.36 0.76 20.06 0.76 19.75 0.76 19.46 0.76L19.46 0.76Q16.97 0.76 14.66 0.11 12.35-0.54 10.34-1.72 8.33-2.91 6.67-4.57 5-6.23 3.82-8.24 2.64-10.25 1.99-12.56 1.34-14.87 1.34-17.36L1.34-17.36Q1.34-19.85 1.99-22.17 2.64-24.49 3.82-26.49 5-28.49 6.67-30.15 8.33-31.81 10.34-32.98 12.35-34.16 14.66-34.8 16.97-35.45 19.46-35.45L19.46-35.45Q21.95-35.45 24.27-34.8 26.59-34.16 28.59-32.98 30.59-31.81 32.25-30.15 33.91-28.49 35.08-26.49 36.25-24.49 36.9-22.17 37.55-19.85 37.55-17.36L37.55-17.36Q37.55-14.77 36.83-12.33 36.11-9.89 34.79-7.78 33.47-5.66 31.6-3.96 29.74-2.25 27.44-1.1L27.44-1.1ZM30.59-17.36L30.59-17.36Q30.59-19.65 29.71-21.69 28.83-23.73 27.33-25.23 25.83-26.73 23.79-27.61 21.75-28.49 19.46-28.49L19.46-28.49Q17.14-28.49 15.11-27.61 13.09-26.73 11.57-25.23 10.06-23.73 9.18-21.69 8.3-19.65 8.3-17.36L8.3-17.36Q8.3-15.06 9.18-13.05 10.06-11.04 11.57-9.52 13.09-8.01 15.11-7.13 17.14-6.25 19.46-6.25L19.46-6.25Q21.75-6.25 23.79-7.13 25.83-8.01 27.33-9.52 28.83-11.04 29.71-13.05 30.59-15.06 30.59-17.36ZM69.75-35.01L69.75-13.99Q69.75-11.08 68.65-8.53 67.55-5.98 65.65-4.09 63.74-2.2 61.19-1.1 58.64 0 55.73 0L55.73 0Q52.83 0 50.28-1.1 47.73-2.2 45.83-4.09 43.94-5.98 42.84-8.53 41.75-11.08 41.75-13.99L41.75-13.99 41.75-35.01 48.73-35.01 48.73-13.99Q48.73-12.55 49.28-11.28 49.83-10.01 50.78-9.06 51.73-8.11 53.01-7.56 54.29-7.01 55.73-7.01L55.73-7.01Q57.18-7.01 58.46-7.56 59.74-8.11 60.69-9.06 61.64-10.01 62.19-11.28 62.74-12.55 62.74-13.99L62.74-13.99 62.74-35.01 69.75-35.01ZM82.83-35.01L82.83 0 75.83 0 75.83-35.01 82.83-35.01ZM113.57-9.69L117.28-3.59Q114.84-1.49 111.81-0.37 108.78 0.76 105.53 0.76L105.53 0.76Q103.04 0.76 100.74 0.11 98.43-0.54 96.42-1.72 94.4-2.91 92.74-4.57 91.08-6.23 89.9-8.24 88.71-10.25 88.07-12.56 87.42-14.87 87.42-17.36L87.42-17.36Q87.42-19.85 88.07-22.17 88.71-24.49 89.9-26.5 91.08-28.52 92.74-30.18 94.4-31.84 96.42-33.02 98.43-34.2 100.74-34.85 103.04-35.5 105.53-35.5L105.53-35.5Q108.78-35.5 111.81-34.39 114.84-33.28 117.28-31.15L117.28-31.15 113.57-25.05Q112.03-26.71 109.93-27.6 107.83-28.49 105.53-28.49L105.53-28.49Q103.22-28.49 101.19-27.61 99.16-26.73 97.65-25.23 96.14-23.73 95.26-21.69 94.38-19.65 94.38-17.36L94.38-17.36Q94.38-15.06 95.26-13.05 96.14-11.04 97.65-9.52 99.16-8.01 101.19-7.13 103.22-6.25 105.53-6.25L105.53-6.25Q107.83-6.25 109.93-7.14 112.03-8.03 113.57-9.69L113.57-9.69ZM129.19-35.01L127.68-8.64 122.23-8.64 120.74-35.01 129.19-35.01ZM129.14-2.49L129.14-2.49Q129.14-1.61 128.81-0.84 128.48-0.07 127.92 0.49 127.36 1.05 126.6 1.38 125.84 1.71 124.99 1.71L124.99 1.71Q124.11 1.71 123.35 1.38 122.6 1.05 122.02 0.49 121.45-0.07 121.12-0.84 120.79-1.61 120.79-2.49L120.79-2.49Q120.79-3.34 121.12-4.1 121.45-4.86 122.02-5.42 122.6-5.98 123.35-6.31 124.11-6.64 124.99-6.64L124.99-6.64Q125.84-6.64 126.6-6.31 127.36-5.98 127.92-5.42 128.48-4.86 128.81-4.1 129.14-3.34 129.14-2.49Z" opacity="1" transform="matrix(1,0,0,1,0,0)" fill="#7a26c1" class="undefined-text-0" data-fill-palette-color="primary" id="text-0"></path></svg></g></svg></g></svg></g></svg></g><g><svg viewBox="0 0 244.43135999999998 196.58812110086598" height="196.58812110086598" width="244.43135999999998"><g><svg xmlns="http://www.w3.org/2000/svg" xmlns:xlink="http://www.w3.org/1999/xlink" version="1.1" x="0" y="0" viewBox="0 9.78600025177002 100.0003433227539 80.42699432373047" enable-background="new 0 0 100 100" xml:space="preserve" width="244.43135999999998" height="196.58812110086598" class="icon-icon-0" data-fill-palette-color="accent" id="icon-0"><path d="M49.942 52.994c13.552-0.488 27.103-0.977 40.653-1.465-2.527-4.177-3.159-7.831-7.989-8.461-7.229-0.94-14.458-1.883-21.688-2.826-14.023-1.827-28.05-3.654-42.075-5.48C20.101 36.792 39.724 53.361 49.942 52.994z" fill="#6936f5" data-fill-palette-color="accent"></path><path d="M0 9.786c4.391 7.257 26.615 23.072 32.953 23.886 17.33 2.231 34.657 4.46 51.986 6.688-3.393-5.607-4.18-9.35-10.312-10.959-8.904-2.341-17.812-4.683-26.717-7.023C31.94 18.182 15.97 13.984 0 9.786z" fill="#6936f5" data-fill-palette-color="accent"></path><path d="M63.108 66.207c10.413-2.219 20.826-4.439 31.241-6.66-2.028-3.346-2.034-5.359-5.827-5.189-6.158 0.273-12.314 0.549-18.471 0.822-11.343 0.506-22.686 1.014-34.028 1.518C37.298 58.064 54.94 67.947 63.108 66.207z" fill="#6936f5" data-fill-palette-color="accent"></path><path d="M87.682 90.213c5.725-3.719 7.262-7.721 10.519-13.807 3.651-6.824 1.257-7.844-2.821-14.596-0.417-0.688-5.842 0.232-6.453 0.904-0.745 0.818-0.248 5.455-0.294 6.496C88.315 76.211 87.998 83.213 87.682 90.213z" fill="#6936f5" data-fill-palette-color="accent"></path><path d="M86.35 63.447c-3.795 0.809-8.604 0.191-9.572 4.229-1.373 5.736-2.746 11.475-4.12 17.211C81.904 82.678 86.028 71.582 86.35 63.447z" fill="#6936f5" data-fill-palette-color="accent"></path><path d="M74.666 66.121c-9.148 1.953-8.956 4.611-12.879 13.18C68.007 78.711 73.811 71.941 74.666 66.121z" fill="#6936f5" data-fill-palette-color="accent"></path></svg></g></svg></g></svg></g><defs></defs></svg><rect width="395.52" height="115.87989942760674" fill="none" stroke="none" visibility="hidden"></rect></g></svg></g></svg>